<?xml version="1.0" standalone="no"?>
<!DOCTYPE svg PUBLIC "-//W3C//DTD SVG 20010904//EN"
 "http://www.w3.org/TR/2001/REC-SVG-20010904/DTD/svg10.dtd">
<svg version="1.0" xmlns="http://www.w3.org/2000/svg"
 width="260.000000pt" height="260.000000pt" viewBox="0 0 260.000000 260.000000"
 preserveAspectRatio="xMidYMid meet">
<metadata>
Created by potrace 1.11, written by Peter Selinger 2001-2013
</metadata>
<g transform="translate(0.000000,260.000000) scale(0.100000,-0.100000)"
fill="#000000" stroke="none">
<path d="M1595 1320 c3 -5 8 -10 11 -10 2 0 4 5 4 10 0 6 -5 10 -11 10 -5 0
-7 -4 -4 -10z"/>
<path d="M1294 1227 c-17 -18 -39 -36 -294 -241 -129 -105 -272 -221 -317
-258 l-83 -69 0 -199 0 -200 709 0 709 0 1 199 0 199 -102 84 c-56 45 -147
119 -202 163 -55 44 -102 83 -105 86 -3 3 -66 54 -140 114 -74 59 -142 114
-150 121 -11 9 -18 9 -26 1z m-29 -472 l0 -80 -83 -3 c-93 -3 -83 -16 -86 104
l-1 61 85 -1 85 -1 0 -80z m255 -2 l0 -83 -84 0 -84 0 -1 84 -1 83 85 -1 85 0
0 -83z m-255 -250 l1 -81 -83 -1 c-59 0 -83 3 -84 12 -1 15 -1 127 0 145 1 10
22 12 83 10 l82 -3 1 -82z m255 4 l0 -84 -84 -1 -84 -2 -1 85 -1 85 85 0 85 0
0 -83z"/>
<path d="M1796 1153 c-6 -14 -5 -15 5 -6 7 7 10 15 7 18 -3 3 -9 -2 -12 -12z"/>
</g>
</svg>
